STARTFONT 2.1
FONT -Adobe-Times-Bold-R-Normal--25-180-100-100-P-132-ISO8859-2
SIZE 18 100 100
FONTBOUNDINGBOX 25 29 -1 -6
COMMENT $XConsortium: timB18.bdf,v 1.7 95/01/26 17:58:17 gildea Exp $
COMMENT 
COMMENT +
COMMENT  Copyright 1984-1989, 1994 Adobe Systems Incorporated.
COMMENT  Copyright 1988, 1994 Digital Equipment Corporation.
COMMENT
COMMENT  Adobe is a trademark of Adobe Systems Incorporated which may be
COMMENT  registered in certain jurisdictions.
COMMENT  Permission to use these trademarks is hereby granted only in
COMMENT  association with the images described in this file.
COMMENT
COMMENT  Permission to use, copy, modify, distribute and sell this software
COMMENT  and its documentation for any purpose and without fee is hereby
COMMENT  granted, provided that the above copyright notices appear in all
COMMENT  copies and that both those copyright notices and this permission
COMMENT  notice appear in supporting documentation, and that the names of
COMMENT  Adobe Systems and Digital Equipment Corporation not be used in
COMMENT  advertising or publicity pertaining to distribution of the software
COMMENT  without specific, written prior permission.  Adobe Systems and
COMMENT  Digital Equipment Corporation make no representations about the
COMMENT  suitability of this software for any purpose.  It is provided "as
COMMENT  is" without express or implied warranty.
COMMENT -
COMMENT  
COMMENT  Translation to ISO8859-2 by Cub Soft;  Petr.Kolar@vslib.cz
COMMENT  
STARTPROPERTIES 28
FOUNDRY "Adobe"
FAMILY_NAME "Times"
WEIGHT_NAME "Bold"
SLANT "R"
SETWIDTH_NAME "Normal"
ADD_STYLE_NAME ""
PIXEL_SIZE 25
POINT_SIZE 180
RESOLUTION_X 100
RESOLUTION_Y 100
SPACING "P"
AVERAGE_WIDTH 132
CHARSET_REGISTRY "ISO8859"
CHARSET_ENCODING "2"
CAP_HEIGHT 17
X_HEIGHT 12
FONT_ASCENT 20
FONT_DESCENT 6
FACE_NAME "Times Bold"

STARTCHAR space
ENCODING 32
SWIDTH 250 0
DWIDTH 6 0
BBX 1 1 0 0
BITMAP
00
ENDCHAR
STARTCHAR exclam
ENCODING 33
SWIDTH 333 0
DWIDTH 8 0
BBX 4 17 2 0
BITMAP
60
f0
f0
f0
f0
f0
60
60
60
60
60
00
00
60
f0
f0
60
ENDCHAR
STARTCHAR quotedbl
ENCODING 34
SWIDTH 555 0
DWIDTH 12 0
BBX 8 8 2 9
BITMAP
e7
e7
e7
e7
e7
e7
42
42
ENDCHAR
STARTCHAR numbersign
ENCODING 35
SWIDTH 500 0
DWIDTH 13 0
BBX 12 17 0 0
BITMAP
0cc0
0cc0
0cc0
0cc0
7ff0
7ff0
1980
1980
1980
1980
ffe0
ffe0
3300
3300
3300
3300
3300
ENDCHAR
STARTCHAR dollar
ENCODING 36
SWIDTH 500 0
DWIDTH 12 0
BBX 10 20 1 -2
BITMAP
0800
0800
3f00
6b80
e980
e980
f880
7c00
7e00
3f00
1f80
0f80
0bc0
89c0
c9c0
c980
eb80
3e00
0800
0800
ENDCHAR
STARTCHAR percent
ENCODING 37
SWIDTH 1000 0
DWIDTH 19 0
BBX 17 17 1 0
BITMAP
1e0c00
3bfc00
711800
e13000
e23000
e26000
f46000
78c000
00c000
018f00
019d80
033880
037080
067100
067100
0c7a00
0c3c00
ENDCHAR
STARTCHAR ampersand
ENCODING 38
SWIDTH 833 0
DWIDTH 21 0
BBX 17 17 1 0
BITMAP
03e000
067000
0e3000
0e3000
0e7000
07e000
0f0f80
1f8700
33c200
61e600
e1fc00
e0f800
e07800
f07c00
f8ff80
7f9f00
3f0e00
ENDCHAR
STARTCHAR apostrophe
ENCODING 39
SWIDTH 333 0
DWIDTH 8 0
BBX 4 9 2 8
BITMAP
60
f0
f0
70
30
60
60
c0
80
ENDCHAR
STARTCHAR parenleft
ENCODING 40
SWIDTH 333 0
DWIDTH 8 0
BBX 5 21 1 -4
BITMAP
08
18
30
30
70
60
60
e0
e0
e0
e0
e0
e0
e0
60
60
70
30
30
18
08
ENDCHAR
STARTCHAR parenright
ENCODING 41
SWIDTH 333 0
DWIDTH 8 0
BBX 5 21 1 -4
BITMAP
80
c0
60
60
30
30
30
38
38
38
38
38
38
38
30
30
30
60
60
c0
80
ENDCHAR
STARTCHAR asterisk
ENCODING 42
SWIDTH 500 0
DWIDTH 13 0
BBX 10 11 1 6
BITMAP
0c00
0c00
4c80
edc0
7f80
1e00
7f80
edc0
4c80
0c00
0c00
ENDCHAR
STARTCHAR plus
ENCODING 43
SWIDTH 570 0
DWIDTH 14 0
BBX 12 12 1 0
BITMAP
0600
0600
0600
0600
0600
fff0
fff0
0600
0600
0600
0600
0600
ENDCHAR
STARTCHAR comma
ENCODING 44
SWIDTH 250 0
DWIDTH 6 0
BBX 4 9 1 -5
BITMAP
60
f0
f0
70
30
60
60
c0
80
ENDCHAR
STARTCHAR minus
ENCODING 45
SWIDTH 570 0
DWIDTH 15 0
BBX 11 2 2 5
BITMAP
ffe0
ffe0
ENDCHAR
STARTCHAR period
ENCODING 46
SWIDTH 250 0
DWIDTH 6 0
BBX 4 4 1 0
BITMAP
60
f0
f0
60
ENDCHAR
STARTCHAR slash
ENCODING 47
SWIDTH 278 0
DWIDTH 7 0
BBX 7 17 0 0
BITMAP
06
06
04
0c
0c
08
18
18
10
30
30
20
60
60
40
c0
c0
ENDCHAR
STARTCHAR zero
ENCODING 48
SWIDTH 500 0
DWIDTH 12 0
BBX 11 17 0 0
BITMAP
0e00
3b80
3180
71c0
71c0
f1e0
f1e0
f1e0
f1e0
f1e0
f1e0
71c0
71c0
71c0
3180
3b80
0e00
ENDCHAR
STARTCHAR one
ENCODING 49
SWIDTH 500 0
DWIDTH 12 0
BBX 9 17 2 0
BITMAP
0c00
3c00
fc00
1c00
1c00
1c00
1c00
1c00
1c00
1c00
1c00
1c00
1c00
1c00
1c00
3e00
ff80
ENDCHAR
STARTCHAR two
ENCODING 50
SWIDTH 500 0
DWIDTH 12 0
BBX 10 17 1 0
BITMAP
1e00
3f00
7f80
c780
8380
0380
0380
0300
0700
0600
0c00
0c00
1840
3040
7fc0
ffc0
ff80
ENDCHAR
STARTCHAR three
ENCODING 51
SWIDTH 500 0
DWIDTH 12 0
BBX 11 17 0 0
BITMAP
0f00
3f80
63c0
41c0
01c0
0380
0700
1f00
07c0
01e0
01e0
00e0
00e0
60e0
f1c0
fb80
7e00
ENDCHAR
STARTCHAR four
ENCODING 52
SWIDTH 500 0
DWIDTH 12 0
BBX 11 17 0 0
BITMAP
0180
0380
0780
0780
0f80
1b80
3380
3380
6380
c380
ffe0
ffe0
ffe0
0380
0380
0380
0380
ENDCHAR
STARTCHAR five
ENCODING 53
SWIDTH 500 0
DWIDTH 12 0
BBX 11 17 0 0
BITMAP
1fe0
1fc0
3fc0
3000
2000
7000
7f00
7f80
7fc0
07c0
01c0
00c0
00c0
60c0
f180
fb80
7e00
ENDCHAR
STARTCHAR six
ENCODING 54
SWIDTH 500 0
DWIDTH 12 0
BBX 11 17 1 0
BITMAP
01e0
0780
1e00
3c00
3800
7800
7700
7b80
f1c0
f1e0
f1e0
f1e0
f1e0
71c0
71c0
3b80
1e00
ENDCHAR
STARTCHAR seven
ENCODING 55
SWIDTH 500 0
DWIDTH 12 0
BBX 11 17 0 0
BITMAP
3fe0
7fe0
7fc0
c0c0
8180
0180
0380
0300
0300
0700
0600
0600
0e00
0e00
0c00
1c00
1c00
ENDCHAR
STARTCHAR eight
ENCODING 56
SWIDTH 500 0
DWIDTH 12 0
BBX 11 17 0 0
BITMAP
1f00
3b80
71c0
71c0
71c0
7980
3b00
3f00
1f80
37c0
63c0
e1e0
e1e0
e1e0
f1c0
7b80
3e00
ENDCHAR
STARTCHAR nine
ENCODING 57
SWIDTH 500 0
DWIDTH 12 0
BBX 11 17 0 0
BITMAP
0e00
3b80
71c0
71c0
f1e0
f1e0
f1e0
f1e0
71e0
3bc0
1fc0
03c0
0380
0780
0f00
3c00
f000
ENDCHAR
STARTCHAR colon
ENCODING 58
SWIDTH 333 0
DWIDTH 8 0
BBX 4 12 2 0
BITMAP
60
f0
f0
60
00
00
00
00
60
f0
f0
60
ENDCHAR
STARTCHAR semicolon
ENCODING 59
SWIDTH 333 0
DWIDTH 8 0
BBX 4 17 2 -5
BITMAP
60
f0
f0
60
00
00
00
00
60
f0
f0
70
30
60
60
c0
80
ENDCHAR
STARTCHAR less
ENCODING 60
SWIDTH 570 0
DWIDTH 14 0
BBX 11 12 1 0
BITMAP
0060
01e0
07c0
1f00
3c00
e000
e000
3c00
1f00
07c0
01e0
0060
ENDCHAR
STARTCHAR equal
ENCODING 61
SWIDTH 570 0
DWIDTH 14 0
BBX 11 6 1 3
BITMAP
ffe0
ffe0
0000
0000
ffe0
ffe0
ENDCHAR
STARTCHAR greater
ENCODING 62
SWIDTH 570 0
DWIDTH 14 0
BBX 11 12 1 0
BITMAP
c000
f000
7c00
1f00
0780
00e0
00e0
0780
1f00
7c00
f000
c000
ENDCHAR
STARTCHAR question
ENCODING 63
SWIDTH 500 0
DWIDTH 12 0
BBX 9 17 1 0
BITMAP
3e00
6f00
e780
e780
4780
0780
0f00
0e00
1c00
1800
1800
0000
0000
1800
3c00
3c00
1800
ENDCHAR
STARTCHAR at
ENCODING 64
SWIDTH 930 0
DWIDTH 23 0
BBX 20 21 1 -4
BITMAP
007c00
03f780
0f80c0
1e0060
3c0020
383b30
70ff10
71e710
f1c710
e3c610
e38e10
e38e30
e38e20
f39e60
f1fec0
70f380
780000
380000
1e0000
078300
01fc00
ENDCHAR
STARTCHAR A
ENCODING 65
SWIDTH 722 0
DWIDTH 18 0
BBX 17 17 0 0
BITMAP
018000
01c000
03c000
03e000
03e000
06e000
06f000
047000
0c7000
087800
083800
1ff800
103c00
303c00
301e00
701e00
f87f80
ENDCHAR
STARTCHAR B
ENCODING 66
SWIDTH 667 0
DWIDTH 16 0
BBX 14 17 0 0
BITMAP
ffc0
3cf0
3c78
3c78
3c78
3c78
3c70
3cc0
3fe0
3c78
3c3c
3c3c
3c3c
3c3c
3c38
3c78
ffe0
ENDCHAR
STARTCHAR C
ENCODING 67
SWIDTH 722 0
DWIDTH 18 0
BBX 15 17 1 0
BITMAP
03f2
1e3e
3c0e
7806
7802
f002
f000
f000
f000
f000
f000
f000
7800
7802
3c0e
1f3c
07f0
ENDCHAR
STARTCHAR D
ENCODING 68
SWIDTH 722 0
DWIDTH 18 0
BBX 16 17 1 0
BITMAP
ffe0
3c78
3c3c
3c1e
3c1e
3c0f
3c0f
3c0f
3c0f
3c0f
3c0f
3c0e
3c1e
3c1c
3c3c
3c78
ffe0
ENDCHAR
STARTCHAR E
ENCODING 69
SWIDTH 667 0
DWIDTH 17 0
BBX 15 17 1 0
BITMAP
fffc
3c1c
3c0c
3c04
3c04
3c20
3c20
3c60
3fe0
3c60
3c20
3c20
3c02
3c02
3c06
3c0e
fffe
ENDCHAR
STARTCHAR F
ENCODING 70
SWIDTH 611 0
DWIDTH 15 0
BBX 14 17 0 0
BITMAP
fffc
3c1c
3c0c
3c04
3c04
3c20
3c20
3c60
3fe0
3c60
3c20
3c20
3c00
3c00
3c00
3c00
ff00
ENDCHAR
STARTCHAR G
ENCODING 71
SWIDTH 778 0
DWIDTH 19 0
BBX 17 17 1 0
BITMAP
03f200
1e3e00
3c0e00
780600
780200
f00200
f00000
f00000
f00000
f07f80
f01e00
f01e00
781e00
781e00
381e00
1e1e00
07f800
ENDCHAR
STARTCHAR H
ENCODING 72
SWIDTH 778 0
DWIDTH 19 0
BBX 18 17 0 0
BITMAP
ff3fc0
3c0f00
3c0f00
3c0f00
3c0f00
3c0f00
3c0f00
3c0f00
3fff00
3c0f00
3c0f00
3c0f00
3c0f00
3c0f00
3c0f00
3c0f00
ff3fc0
ENDCHAR
STARTCHAR I
ENCODING 73
SWIDTH 389 0
DWIDTH 10 0
BBX 8 17 0 0
BITMAP
ff
3c
3c
3c
3c
3c
3c
3c
3c
3c
3c
3c
3c
3c
3c
3c
ff
ENDCHAR
STARTCHAR J
ENCODING 74
SWIDTH 500 0
DWIDTH 12 0
BBX 11 19 0 -2
BITMAP
1fe0
0780
0780
0780
0780
0780
0780
0780
0780
0780
0780
0780
0780
0780
e780
e780
e700
e700
3c00
ENDCHAR
STARTCHAR K
ENCODING 75
SWIDTH 778 0
DWIDTH 19 0
BBX 18 17 0 0
BITMAP
ff3f80
3c1e00
3c1800
3c3000
3c6000
3cc000
3d8000
3fc000
3fc000
3de000
3cf000
3cf800
3c7c00
3c3e00
3c1f00
3c0f80
ff1fc0
ENDCHAR
STARTCHAR L
ENCODING 76
SWIDTH 667 0
DWIDTH 16 0
BBX 15 17 0 0
BITMAP
ff00
3c00
3c00
3c00
3c00
3c00
3c00
3c00
3c00
3c00
3c00
3c00
3c02
3c06
3c0c
3c1c
fffc
ENDCHAR
STARTCHAR M
ENCODING 77
SWIDTH 944 0
DWIDTH 24 0
BBX 21 17 1 0
BITMAP
fc01f8
3c03e0
3e03e0
3e07e0
2f05e0
2f0de0
2709e0
2789e0
2799e0
2391e0
23f1e0
23f1e0
21e1e0
21e1e0
20c1e0
20c1e0
f807f8
ENDCHAR
STARTCHAR N
ENCODING 78
SWIDTH 722 0
DWIDTH 18 0
BBX 17 17 0 0
BITMAP
f80f80
7c0700
3e0200
3f0200
3f8200
2fc200
27e200
23e200
21f200
20fa00
207e00
203e00
201e00
201e00
200e00
600600
f80200
ENDCHAR
STARTCHAR O
ENCODING 79
SWIDTH 778 0
DWIDTH 19 0
BBX 16 17 1 0
BITMAP
07e0
1c38
381c
781e
700e
f00f
f00f
f00f
f00f
f00f
f00f
f00f
700e
781e
381c
1c38
07e0
ENDCHAR
STARTCHAR P
ENCODING 80
SWIDTH 611 0
DWIDTH 15 0
BBX 14 17 0 0
BITMAP
ffe0
3c78
3c3c
3c3c
3c3c
3c3c
3c3c
3c78
3fe0
3c00
3c00
3c00
3c00
3c00
3c00
3c00
ff00
ENDCHAR
STARTCHAR Q
ENCODING 81
SWIDTH 778 0
DWIDTH 19 0
BBX 17 22 1 -5
BITMAP
07e000
1c3800
381c00
781e00
700e00
f00f00
f00f00
f00f00
f00f00
f00f00
f00f00
f00f00
f00e00
781e00
781c00
3c3800
1fe000
07c000
01e000
01f000
00fc00
003f80
ENDCHAR
STARTCHAR R
ENCODING 82
SWIDTH 722 0
DWIDTH 18 0
BBX 16 17 1 0
BITMAP
ffe0
3c78
3c38
3c3c
3c3c
3c3c
3c38
3c70
3fc0
3de0
3cf0
3cf0
3c78
3c7c
3c3c
3c1e
ff1f
ENDCHAR
STARTCHAR S
ENCODING 83
SWIDTH 556 0
DWIDTH 14 0
BBX 12 17 1 0
BITMAP
3fa0
71e0
e0e0
e060
e020
f800
7e00
7f80
3fc0
0fe0
07e0
81f0
80f0
c0f0
e0e0
f9e0
bf80
ENDCHAR
STARTCHAR T
ENCODING 84
SWIDTH 667 0
DWIDTH 16 0
BBX 14 17 1 0
BITMAP
fffc
e79c
c78c
8784
8784
0780
0780
0780
0780
0780
0780
0780
0780
0780
0780
0780
1fe0
ENDCHAR
STARTCHAR U
ENCODING 85
SWIDTH 722 0
DWIDTH 18 0
BBX 17 17 0 0
BITMAP
ff0f80
7e0700
3c0200
3c0200
3c0200
3c0200
3c0200
3c0200
3c0200
3c0200
3c0200
3c0200
3c0200
3c0600
1e0400
1f0c00
07f800
ENDCHAR
STARTCHAR V
ENCODING 86
SWIDTH 722 0
DWIDTH 18 0
BBX 17 17 0 0
BITMAP
ff1f80
3c0600
3c0400
1e0400
1e0c00
0f0800
0f1800
0f1800
079000
07b000
03e000
03e000
03e000
01c000
01c000
008000
008000
ENDCHAR
STARTCHAR W
ENCODING 87
SWIDTH 1000 0
DWIDTH 25 0
BBX 24 17 0 0
BITMAP
ff7f9f
3c1e06
3c1e04
1e0f0c
1e1f08
1e1f18
0f1798
0f3790
0f27b0
07e3b0
07c3e0
07c3e0
03c1e0
0381c0
0381c0
010080
010080
ENDCHAR
STARTCHAR X
ENCODING 88
SWIDTH 722 0
DWIDTH 18 0
BBX 16 17 1 0
BITMAP
ff3f
3e0c
1e08
1f18
0f30
0fa0
07e0
03c0
03e0
03e0
03f0
06f0
0c78
087c
183c
383e
fcff
ENDCHAR
STARTCHAR Y
ENCODING 89
SWIDTH 722 0
DWIDTH 18 0
BBX 18 17 0 0
BITMAP
ff8fc0
3e0300
1e0200
0f0600
0f0c00
078c00
079800
03d000
03f000
01e000
01e000
01e000
01e000
01e000
01e000
01e000
07f800
ENDCHAR
STARTCHAR Z
ENCODING 90
SWIDTH 667 0
DWIDTH 17 0
BBX 14 17 1 0
BITMAP
fff8
e0f8
c1f0
c1f0
83e0
03c0
07c0
0780
0f80
0f00
1e00
3e04
3c04
7c0c
781c
f83c
fff8
ENDCHAR
STARTCHAR bracketleft
ENCODING 91
SWIDTH 333 0
DWIDTH 8 0
BBX 5 21 1 -4
BITMAP
f8
e0
c0
c0
c0
c0
c0
c0
c0
c0
c0
c0
c0
c0
c0
c0
c0
c0
c0
e0
f8
ENDCHAR
STARTCHAR backslash
ENCODING 92
SWIDTH 278 0
DWIDTH 7 0
BBX 7 17 0 0
BITMAP
c0
c0
40
60
60
20
30
30
10
18
18
08
0c
0c
04
06
06
ENDCHAR
STARTCHAR bracketright
ENCODING 93
SWIDTH 333 0
DWIDTH 8 0
BBX 5 21 1 -4
BITMAP
f8
38
18
18
18
18
18
18
18
18
18
18
18
18
18
18
18
18
18
38
f8
ENDCHAR
STARTCHAR asciicircum
ENCODING 94
SWIDTH 581 0
DWIDTH 15 0
BBX 8 10 3 7
BITMAP
18
18
3c
24
66
66
66
c3
c3
81
ENDCHAR
STARTCHAR underscore
ENCODING 95
SWIDTH 500 0
DWIDTH 12 0
BBX 12 2 0 -5
BITMAP
fff0
fff0
ENDCHAR
STARTCHAR grave
ENCODING 96
SWIDTH 333 0
DWIDTH 8 0
BBX 5 4 1 13
BITMAP
e0
70
30
18
ENDCHAR
STARTCHAR a
ENCODING 97
SWIDTH 500 0
DWIDTH 12 0
BBX 10 12 1 0
BITMAP
3e00
7700
e380
e380
4380
0f80
7380
e380
e380
e780
ffc0
7180
ENDCHAR
STARTCHAR b
ENCODING 98
SWIDTH 556 0
DWIDTH 13 0
BBX 11 17 1 0
BITMAP
f000
7000
7000
7000
7000
7700
7fc0
71c0
70e0
70e0
70e0
70e0
70e0
70e0
71c0
7bc0
6700
ENDCHAR
STARTCHAR c
ENCODING 99
SWIDTH 444 0
DWIDTH 11 0
BBX 9 12 1 0
BITMAP
1e00
7300
7380
e380
e100
e000
e000
e000
f000
7880
7f00
1e00
ENDCHAR
STARTCHAR d
ENCODING 100
SWIDTH 556 0
DWIDTH 14 0
BBX 12 17 1 0
BITMAP
01e0
00e0
00e0
00e0
00e0
1ee0
7fe0
71e0
e0e0
e0e0
e0e0
e0e0
e0e0
f0e0
71e0
7ee0
1c70
ENDCHAR
STARTCHAR e
ENCODING 101
SWIDTH 444 0
DWIDTH 11 0
BBX 9 12 1 0
BITMAP
1e00
7300
7380
e380
e380
ff80
e000
e000
f000
7880
7f00
1e00
ENDCHAR
STARTCHAR f
ENCODING 102
SWIDTH 333 0
DWIDTH 8 0
BBX 8 17 1 0
BITMAP
1e
33
73
70
70
fc
70
70
70
70
70
70
70
70
70
70
f8
ENDCHAR
STARTCHAR g
ENCODING 103
SWIDTH 500 0
DWIDTH 12 0
BBX 10 17 1 -5
BITMAP
3ec0
77c0
e380
e380
e380
e380
7300
3e00
6000
e000
ff80
ffc0
7fc0
c1c0
c0c0
e180
7f00
ENDCHAR
STARTCHAR h
ENCODING 104
SWIDTH 556 0
DWIDTH 14 0
BBX 12 17 1 0
BITMAP
f000
7000
7000
7000
7000
73c0
7fe0
78e0
70e0
70e0
70e0
70e0
70e0
70e0
70e0
70e0
f9f0
ENDCHAR
STARTCHAR i
ENCODING 105
SWIDTH 278 0
DWIDTH 7 0
BBX 5 17 1 0
BITMAP
70
70
70
00
00
f0
70
70
70
70
70
70
70
70
70
70
f8
ENDCHAR
STARTCHAR j
ENCODING 106
SWIDTH 333 0
DWIDTH 8 0
BBX 7 22 -1 -5
BITMAP
0e
0e
0e
00
00
1e
0e
0e
0e
0e
0e
0e
0e
0e
0e
0e
0e
0e
ce
ce
cc
78
ENDCHAR
STARTCHAR k
ENCODING 107
SWIDTH 556 0
DWIDTH 15 0
BBX 13 17 1 0
BITMAP
f000
7000
7000
7000
7000
73f0
70c0
7180
7300
7600
7e00
7f00
7780
73c0
71e0
70f0
fbf8
ENDCHAR
STARTCHAR l
ENCODING 108
SWIDTH 278 0
DWIDTH 7 0
BBX 5 17 1 0
BITMAP
f0
70
70
70
70
70
70
70
70
70
70
70
70
70
70
70
f8
ENDCHAR
STARTCHAR m
ENCODING 109
SWIDTH 833 0
DWIDTH 21 0
BBX 19 12 1 0
BITMAP
f3c780
77dfc0
78f1c0
70e1c0
70e1c0
70e1c0
70e1c0
70e1c0
70e1c0
70e1c0
70e1c0
f9f3e0
ENDCHAR
STARTCHAR n
ENCODING 110
SWIDTH 556 0
DWIDTH 14 0
BBX 12 12 1 0
BITMAP
f3c0
77e0
78e0
70e0
70e0
70e0
70e0
70e0
70e0
70e0
70e0
f9f0
ENDCHAR
STARTCHAR o
ENCODING 111
SWIDTH 500 0
DWIDTH 13 0
BBX 11 12 1 0
BITMAP
1f00
71c0
71c0
e0e0
e0e0
e0e0
e0e0
e0e0
e0e0
71c0
71c0
1f00
ENDCHAR
STARTCHAR p
ENCODING 112
SWIDTH 556 0
DWIDTH 14 0
BBX 12 17 1 -5
BITMAP
e3c0
77e0
78e0
7070
7070
7070
7070
7070
7070
78e0
77e0
7380
7000
7000
7000
7000
fc00
ENDCHAR
STARTCHAR q
ENCODING 113
SWIDTH 556 0
DWIDTH 14 0
BBX 12 17 1 -5
BITMAP
0e60
3fe0
71e0
70e0
e0e0
e0e0
e0e0
e0e0
e0e0
71e0
7ee0
1ce0
00e0
00e0
00e0
00e0
01f0
ENDCHAR
STARTCHAR r
ENCODING 114
SWIDTH 444 0
DWIDTH 11 0
BBX 9 12 1 0
BITMAP
ef00
7f80
7380
7000
7000
7000
7000
7000
7000
7000
7000
f800
ENDCHAR
STARTCHAR s
ENCODING 115
SWIDTH 389 0
DWIDTH 10 0
BBX 8 12 1 0
BITMAP
3e
66
e2
e0
f8
7c
3e
1f
87
87
c6
fc
ENDCHAR
STARTCHAR t
ENCODING 116
SWIDTH 333 0
DWIDTH 8 0
BBX 8 16 0 0
BITMAP
08
18
38
78
ff
38
38
38
38
38
38
38
38
39
3e
1c
ENDCHAR
STARTCHAR u
ENCODING 117
SWIDTH 556 0
DWIDTH 14 0
BBX 12 12 1 0
BITMAP
f1e0
70e0
70e0
70e0
70e0
70e0
70e0
70e0
70e0
71e0
7ef0
3ce0
ENDCHAR
STARTCHAR v
ENCODING 118
SWIDTH 500 0
DWIDTH 12 0
BBX 12 12 0 0
BITMAP
fcf0
7060
7840
38c0
3880
1c80
1d80
1f00
0f00
0f00
0600
0600
ENDCHAR
STARTCHAR w
ENCODING 119
SWIDTH 722 0
DWIDTH 18 0
BBX 17 12 0 0
BITMAP
fdf780
78e300
38e300
38e200
3ce600
1d7600
1d7400
1f3c00
0e3800
0e3800
041000
041000
ENDCHAR
STARTCHAR x
ENCODING 120
SWIDTH 500 0
DWIDTH 12 0
BBX 12 12 0 0
BITMAP
fcf0
7860
3cc0
1d80
1f00
0f00
0f00
1f80
1bc0
31c0
61e0
f3f0
ENDCHAR
STARTCHAR y
ENCODING 121
SWIDTH 500 0
DWIDTH 12 0
BBX 12 17 0 -5
BITMAP
fdf0
7860
3840
38c0
3c80
1c80
1d80
1f00
0f00
0f00
0600
0600
0600
6400
ec00
f800
7000
ENDCHAR
STARTCHAR z
ENCODING 122
SWIDTH 444 0
DWIDTH 11 0
BBX 9 12 1 0
BITMAP
ff80
c700
8f00
8e00
1e00
1c00
3c00
3800
7880
7180
f180
ff80
ENDCHAR
STARTCHAR braceleft
ENCODING 123
SWIDTH 394 0
DWIDTH 10 0
BBX 7 21 1 -4
BITMAP
0e
18
30
30
30
30
30
30
30
60
c0
60
30
30
30
30
30
30
30
18
0e
ENDCHAR
STARTCHAR bar
ENCODING 124
SWIDTH 220 0
DWIDTH 6 0
BBX 2 22 2 -5
BITMAP
c0
c0
c0
c0
c0
c0
c0
c0
c0
c0
c0
c0
c0
c0
c0
c0
c0
c0
c0
c0
c0
c0
ENDCHAR
STARTCHAR braceright
ENCODING 125
SWIDTH 394 0
DWIDTH 10 0
BBX 7 21 1 -4
BITMAP
e0
30
18
18
18
18
18
18
18
0c
06
0c
18
18
18
18
18
18
18
30
e0
ENDCHAR
STARTCHAR asciitilde
ENCODING 126
SWIDTH 520 0
DWIDTH 13 0
BBX 12 6 0 6
BITMAP
1800
7e10
ff10
8ff0
87e0
0180
ENDCHAR
STARTCHAR nobreakspace
ENCODING 160
SWIDTH 250 0
DWIDTH 6 0
BBX 1 1 0 0
BITMAP
00
ENDCHAR
STARTCHAR Aogonek
ENCODING 161
SWIDTH 722 0
DWIDTH 18 0
BBX 17 22 0 -5
BITMAP
018000
01c000
03c000
03e000
03e000
06e000
06f000
047000
0c7000
087800
083800
1ff800
103c00
303c00
301e00
701e00
f87f80
018000
030000
030000
032000
01c000
ENDCHAR
STARTCHAR breve
ENCODING 162
SWIDTH 333 0
DWIDTH 8 0
BBX 6 3 1 14
BITMAP
84
cc
78
ENDCHAR
STARTCHAR Lstroke
ENCODING 163
SWIDTH 667 0
DWIDTH 16 0
BBX 15 17 1 0
BITMAP
ff00
3c00
3c00
3c00
3c00
3d80
3f00
3c00
7c00
fc00
3c00
3c00
3c02
3c06
3c0c
3c1c
fffc
ENDCHAR
STARTCHAR currency
ENCODING 164
SWIDTH 500 0
DWIDTH 13 0
BBX 11 12 0 3
BITMAP
c060
eee0
7fc0
3b80
71c0
60c0
60c0
71c0
3b80
7fc0
eee0
c060
ENDCHAR
STARTCHAR Lcaron
ENCODING 165
SWIDTH 667 0
DWIDTH 16 0
BBX 15 20 0 0
BITMAP
0030
0078
0078
ff38
3c18
3c30
3c30
3c60
3c40
3c00
3c00
3c00
3c00
3c00
3c00
3c02
3c06
3c0c
3c1c
fffc
ENDCHAR
STARTCHAR Sacute
ENCODING 166
SWIDTH 556 0
DWIDTH 14 0
BBX 12 22 1 0
BITMAP
01c0
0380
0300
0600
0000
3fa0
71e0
e0e0
e060
e020
f800
7e00
7f80
3fc0
0fe0
07e0
81f0
80f0
c0f0
e0e0
f9e0
bf80
ENDCHAR
STARTCHAR section
ENCODING 167
SWIDTH 500 0
DWIDTH 11 0
BBX 7 20 2 -3
BITMAP
3c
6e
ce
c6
e0
70
78
5c
8e
86
c2
e2
74
3c
1c
0e
c6
e6
ec
78
ENDCHAR
STARTCHAR diaeresis
ENCODING 168
SWIDTH 333 0
DWIDTH 8 0
BBX 6 2 1 14
BITMAP
cc
cc
ENDCHAR
STARTCHAR Scaron
ENCODING 169
SWIDTH 556 0
DWIDTH 14 0
BBX 12 21 1 0
BITMAP
1980
0f00
0600
0000
3fa0
71e0
e0e0
e060
e020
f800
7e00
7f80
3fc0
0fe0
07e0
81f0
80f0
c0f0
e0e0
f9e0
bf80
ENDCHAR
STARTCHAR Scedilla
ENCODING 170
SWIDTH 556 0
DWIDTH 14 0
BBX 12 23 1 -6
BITMAP
3fa0
71e0
e0e0
e060
e020
f800
7e00
7f80
3fc0
0fe0
07e0
81f0
80f0
c0f0
e0e0
f9e0
bf80
0200
0600
0700
0180
1180
0f00
ENDCHAR
STARTCHAR Tcaron
ENCODING 171
SWIDTH 667 0
DWIDTH 16 0
BBX 14 21 1 0
BITMAP
0cc0
0780
0300
0000
fffc
e79c
c78c
8784
8784
0780
0780
0780
0780
0780
0780
0780
0780
0780
0780
0780
1fe0
ENDCHAR
STARTCHAR Zacute
ENCODING 172
SWIDTH 667 0
DWIDTH 17 0
BBX 14 22 1 0
BITMAP
00e0
01c0
0180
0300
0000
fff8
e0f8
c1f0
c1f0
83e0
03c0
07c0
0780
0f80
0f00
1e00
3e04
3c04
7c0c
781c
f83c
fff8
ENDCHAR
STARTCHAR hyphen
ENCODING 173
SWIDTH 333 0
DWIDTH 8 0
BBX 6 3 1 5
BITMAP
fc
fc
fc
ENDCHAR
STARTCHAR Zcaron
ENCODING 174
SWIDTH 667 0
DWIDTH 17 0
BBX 14 21 1 0
BITMAP
0cc0
0780
0300
0000
fff8
e0f8
c1f0
c1f0
83e0
03c0
07c0
0780
0f80
0f00
1e00
3e04
3c04
7c0c
781c
f83c
fff8
ENDCHAR
STARTCHAR Zabovedot
ENCODING 175
SWIDTH 667 0
DWIDTH 17 0
BBX 14 20 1 0
BITMAP
0300
0300
0000
fff8
e0f8
c1f0
c1f0
83e0
03c0
07c0
0780
0f80
0f00
1e00
3e04
3c04
7c0c
781c
f83c
fff8
ENDCHAR
STARTCHAR degree
ENCODING 176
SWIDTH 400 0
DWIDTH 9 0
BBX 8 7 0 10
BITMAP
3c
66
c3
c3
c3
66
3c
ENDCHAR
STARTCHAR aogonek
ENCODING 177
SWIDTH 500 0
DWIDTH 12 0
BBX 10 17 1 -5
BITMAP
3e00
7700
e380
e380
4380
0f80
7380
e380
e380
e780
ffc0
7180
1800
3000
3000
3200
1c00
ENDCHAR
STARTCHAR ogonek
ENCODING 178
SWIDTH 333 0
DWIDTH 8 0
BBX 5 5 2 -5
BITMAP
60
c0
c0
c8
70
ENDCHAR
STARTCHAR lstroke
ENCODING 179
SWIDTH 278 0
DWIDTH 7 0
BBX 7 17 0 0
BITMAP
78
38
38
38
38
3e
3c
38
78
f8
38
38
38
38
38
38
7c
ENDCHAR
STARTCHAR acute
ENCODING 180
SWIDTH 333 0
DWIDTH 8 0
BBX 5 4 2 13
BITMAP
38
70
60
c0
ENDCHAR
STARTCHAR lcaron
ENCODING 181
SWIDTH 440 0
DWIDTH 11 0
BBX 9 20 1 0
BITMAP
0300
0780
0780
f380
7180
7300
7300
7600
7400
7000
7000
7000
7000
7000
7000
7000
7000
7000
7000
f800
ENDCHAR
STARTCHAR sacute
ENCODING 182
SWIDTH 389 0
DWIDTH 10 0
BBX 8 17 1 0
BITMAP
07
0e
0c
18
00
3e
66
e2
e0
f8
7c
3e
1f
87
87
c6
fc
ENDCHAR
STARTCHAR caron
ENCODING 183
SWIDTH 333 0
DWIDTH 8 0
BBX 6 3 1 14
BITMAP
cc
78
30
ENDCHAR
STARTCHAR cedilla
ENCODING 184
SWIDTH 333 0
DWIDTH 8 0
BBX 6 6 1 -6
BITMAP
10
30
38
0c
8c
78
ENDCHAR
STARTCHAR scaron
ENCODING 185
SWIDTH 389 0
DWIDTH 10 0
BBX 8 16 1 0
BITMAP
66
3c
18
00
3e
66
e2
e0
f8
7c
3e
1f
87
87
c6
fc
ENDCHAR
STARTCHAR scedilla
ENCODING 186
SWIDTH 389 0
DWIDTH 10 0
BBX 8 18 1 -6
BITMAP
3e
66
e2
e0
f8
7c
3e
1f
87
87
c6
fc
08
18
1c
06
46
3c
ENDCHAR
STARTCHAR tcaron
ENCODING 187
SWIDTH 400 0
DWIDTH 10 0
BBX 10 22 0 0
BITMAP
0180
03c0
03c0
01c0
00c0
0180
0980
1b00
3a00
7800
ff00
3800
3800
3800
3800
3800
3800
3800
3800
3900
3e00
1c00
ENDCHAR
STARTCHAR zacute
ENCODING 188
SWIDTH 444 0
DWIDTH 11 0
BBX 9 17 1 0
BITMAP
0380
0700
0600
0c00
0000
ff80
c700
8f00
8e00
1e00
1c00
3c00
3800
7880
7180
f180
ff80
ENDCHAR
STARTCHAR doubleacute
ENCODING 189
SWIDTH 333 0
DWIDTH 8 0
BBX 7 5 1 13
BITMAP
66
66
cc
cc
88
ENDCHAR
STARTCHAR zcaron
ENCODING 190
SWIDTH 444 0
DWIDTH 11 0
BBX 9 16 1 0
BITMAP
3300
1e00
0c00
0000
ff80
c700
8f00
8e00
1e00
1c00
3c00
3800
7880
7180
f180
ff80
ENDCHAR
STARTCHAR zabovedot
ENCODING 191
SWIDTH 444 0
DWIDTH 11 0
BBX 9 15 1 0
BITMAP
0c00
0c00
0000
ff80
c700
8f00
8e00
1e00
1c00
3c00
3800
7880
7180
f180
ff80
ENDCHAR
STARTCHAR Racute
ENCODING 192
SWIDTH 722 0
DWIDTH 18 0
BBX 16 22 1 0
BITMAP
00e0
01c0
0180
0300
0000
ffe0
3c78
3c38
3c3c
3c3c
3c3c
3c38
3c70
3fc0
3de0
3cf0
3cf0
3c78
3c7c
3c3c
3c1e
ff1f
ENDCHAR
STARTCHAR Aacute
ENCODING 193
SWIDTH 722 0
DWIDTH 18 0
BBX 17 22 0 0
BITMAP
00e000
01c000
018000
030000
000000
018000
01c000
03c000
03e000
03e000
06e000
06f000
047000
0c7000
087800
083800
1ff800
103c00
303c00
301e00
701e00
f87f80
ENDCHAR
STARTCHAR Acircumflex
ENCODING 194
SWIDTH 722 0
DWIDTH 18 0
BBX 17 22 0 0
BITMAP
018000
03c000
066000
000000
000000
018000
01c000
03c000
03e000
03e000
06e000
06f000
047000
0c7000
087800
083800
1ff800
103c00
303c00
301e00
701e00
f87f80
ENDCHAR
STARTCHAR Abreve
ENCODING 195
SWIDTH 722 0
DWIDTH 18 0
BBX 17 21 0 0
BITMAP
042000
066000
03c000
000000
018000
01c000
03c000
03e000
03e000
06e000
06f000
047000
0c7000
087800
083800
1ff800
103c00
303c00
301e00
701e00
f87f80
ENDCHAR
STARTCHAR Adiaeresis
ENCODING 196
SWIDTH 722 0
DWIDTH 18 0
BBX 17 21 0 0
BITMAP
066000
066000
000000
000000
018000
01c000
03c000
03e000
03e000
06e000
06f000
047000
0c7000
087800
083800
1ff800
103c00
303c00
301e00
701e00
f87f80
ENDCHAR
STARTCHAR Lacute
ENCODING 197
SWIDTH 667 0
DWIDTH 16 0
BBX 15 22 0 0
BITMAP
0700
0e00
0c00
1800
0000
ff00
3c00
3c00
3c00
3c00
3c00
3c00
3c00
3c00
3c00
3c00
3c00
3c02
3c06
3c0c
3c1c
fffc
ENDCHAR
STARTCHAR Cacute
ENCODING 198
SWIDTH 722 0
DWIDTH 18 0
BBX 15 22 1 0
BITMAP
0038
0070
0060
00c0
0000
03f2
1e3e
3c0e
7806
7802
f002
f000
f000
f000
f000
f000
f000
7800
7802
3c0e
1f3c
07f0
ENDCHAR
STARTCHAR Ccedilla
ENCODING 199
SWIDTH 722 0
DWIDTH 18 0
BBX 15 23 1 -6
BITMAP
03f2
1e3e
3c0e
7806
7802
f002
f000
f000
f000
f000
f000
f000
7800
7802
3c0e
1f3c
07f0
0100
0300
0380
00c0
08c0
0780
ENDCHAR
STARTCHAR Ccaron
ENCODING 200
SWIDTH 722 0
DWIDTH 18 0
BBX 15 21 1 0
BITMAP
0330
01e0
00c0
0000
03f2
1e3e
3c0e
7806
7802
f002
f000
f000
f000
f000
f000
f000
7800
7802
3c0e
1f3c
07f0
ENDCHAR
STARTCHAR Eacute
ENCODING 201
SWIDTH 667 0
DWIDTH 17 0
BBX 15 22 1 0
BITMAP
01c0
0380
0300
0600
0000
fffc
3c1c
3c0c
3c04
3c04
3c20
3c20
3c60
3fe0
3c60
3c20
3c20
3c02
3c02
3c06
3c0e
fffe
ENDCHAR
STARTCHAR Eogonek
ENCODING 202
SWIDTH 667 0
DWIDTH 17 0
BBX 15 22 1 -5
BITMAP
fffc
3c1c
3c0c
3c04
3c04
3c20
3c20
3c60
3fe0
3c60
3c20
3c20
3c02
3c02
3c06
3c0e
fffe
0300
0600
0600
0640
0380
ENDCHAR
STARTCHAR Ediaeresis
ENCODING 203
SWIDTH 667 0
DWIDTH 17 0
BBX 15 21 1 0
BITMAP
0cc0
0cc0
0000
0000
fffc
3c1c
3c0c
3c04
3c04
3c20
3c20
3c60
3fe0
3c60
3c20
3c20
3c02
3c02
3c06
3c0e
fffe
ENDCHAR
STARTCHAR Ecaron
ENCODING 204
SWIDTH 667 0
DWIDTH 17 0
BBX 15 21 1 0
BITMAP
0cc0
0780
0300
0000
fffc
3c1c
3c0c
3c04
3c04
3c20
3c20
3c60
3fe0
3c60
3c20
3c20
3c02
3c02
3c06
3c0e
fffe
ENDCHAR
STARTCHAR Iacute
ENCODING 205
SWIDTH 389 0
DWIDTH 10 0
BBX 8 22 0 0
BITMAP
0e
1c
18
30
00
ff
3c
3c
3c
3c
3c
3c
3c
3c
3c
3c
3c
3c
3c
3c
3c
ff
ENDCHAR
STARTCHAR Icircumflex
ENCODING 206
SWIDTH 389 0
DWIDTH 10 0
BBX 8 22 0 0
BITMAP
18
3c
66
00
00
ff
3c
3c
3c
3c
3c
3c
3c
3c
3c
3c
3c
3c
3c
3c
3c
ff
ENDCHAR
STARTCHAR Dcaron
ENCODING 207
SWIDTH 722 0
DWIDTH 18 0
BBX 16 21 1 0
BITMAP
0cc0
0780
0300
0000
ffe0
3c78
3c3c
3c1e
3c1e
3c0f
3c0f
3c0f
3c0f
3c0f
3c0f
3c0e
3c1e
3c1c
3c3c
3c78
ffe0
ENDCHAR
STARTCHAR Dstroke
ENCODING 208
SWIDTH 722 0
DWIDTH 18 0
BBX 16 17 1 0
BITMAP
ffe0
3c78
3c3c
3c1e
3c1e
3c0f
3c0f
ff8f
ff8f
3c0f
3c0f
3c0e
3c1e
3c1c
3c3c
3c78
ffe0
ENDCHAR
STARTCHAR Nacute
ENCODING 209
SWIDTH 722 0
DWIDTH 18 0
BBX 17 22 0 0
BITMAP
003800
007000
006000
00c000
000000
f80f80
7c0700
3e0200
3f0200
3f8200
2fc200
27e200
23e200
21f200
20fa00
207e00
203e00
201e00
201e00
200e00
600600
f80200
ENDCHAR
STARTCHAR Ncaron
ENCODING 210
SWIDTH 722 0
DWIDTH 18 0
BBX 17 21 0 0
BITMAP
033000
01e000
00c000
000000
f80f80
7c0700
3e0200
3f0200
3f8200
2fc200
27e200
23e200
21f200
20fa00
207e00
203e00
201e00
201e00
200e00
600600
f80200
ENDCHAR
STARTCHAR Oacute
ENCODING 211
SWIDTH 778 0
DWIDTH 19 0
BBX 16 22 1 0
BITMAP
0070
00e0
00c0
0180
0000
07e0
1e78
3c3c
781e
781e
f00f
f00f
f00f
f00f
f00f
f00f
f00f
781e
781e
3c3c
1e78
07e0
ENDCHAR
STARTCHAR Ocircumflex
ENCODING 212
SWIDTH 778 0
DWIDTH 19 0
BBX 16 22 1 0
BITMAP
0180
03c0
0660
0000
0000
07e0
1e78
3c3c
781e
781e
f00f
f00f
f00f
f00f
f00f
f00f
f00f
781e
781e
3c3c
1e78
07e0
ENDCHAR
STARTCHAR Odoubleacute
ENCODING 213
SWIDTH 778 0
DWIDTH 19 0
BBX 16 23 1 0
BITMAP
0330
0330
0660
0660
0440
0000
07e0
1c38
381c
781e
700e
f00f
f00f
f00f
f00f
f00f
f00f
f00f
700e
781e
381c
1c38
07e0
ENDCHAR
STARTCHAR Odiaeresis
ENCODING 214
SWIDTH 778 0
DWIDTH 19 0
BBX 16 21 1 0
BITMAP
0c60
0c60
0000
0000
07e0
1e78
3c3c
781e
781e
f00f
f00f
f00f
f00f
f00f
f00f
f00f
781e
781e
3c3c
1e78
07e0
ENDCHAR
STARTCHAR multiply
ENCODING 215
SWIDTH 570 0
DWIDTH 14 0
BBX 12 12 1 0
BITMAP
c030
e070
70e0
39c0
1f80
0f00
0f00
1f80
39c0
70e0
e070
c030
ENDCHAR
STARTCHAR Rcaron
ENCODING 216
SWIDTH 722 0
DWIDTH 18 0
BBX 16 21 1 0
BITMAP
0cc0
0780
0300
0000
ffe0
3c78
3c38
3c3c
3c3c
3c3c
3c38
3c70
3fc0
3de0
3cf0
3cf0
3c78
3c7c
3c3c
3c1e
ff1f
ENDCHAR
STARTCHAR Uring
ENCODING 217
SWIDTH 722 0
DWIDTH 18 0
BBX 17 24 0 0
BITMAP
00c000
01e000
033000
033000
01e000
00c000
000000
ff0f80
7e0700
3c0200
3c0200
3c0200
3c0200
3c0200
3c0200
3c0200
3c0200
3c0200
3c0200
3c0200
3c0600
1e0400
1f0c00
07f800
ENDCHAR
STARTCHAR Uacute
ENCODING 218
SWIDTH 722 0
DWIDTH 18 0
BBX 17 22 0 0
BITMAP
003800
007000
006000
00c000
000000
ff0f80
3e0600
3c0200
3c0200
3c0200
3c0200
3c0200
3c0200
3c0200
3c0200
3c0200
3c0200
3c0200
3c0600
1e0400
1f1c00
07f800
ENDCHAR
STARTCHAR Udoubleacute
ENCODING 219
SWIDTH 722 0
DWIDTH 18 0
BBX 17 23 0 0
BITMAP
019800
019800
033000
033000
022000
000000
ff0f80
7e0700
3c0200
3c0200
3c0200
3c0200
3c0200
3c0200
3c0200
3c0200
3c0200
3c0200
3c0200
3c0600
1e0400
1f0c00
07f800
ENDCHAR
STARTCHAR Udiaeresis
ENCODING 220
SWIDTH 722 0
DWIDTH 18 0
BBX 17 21 0 0
BITMAP
031800
031800
000000
000000
ff0f80
3e0600
3c0200
3c0200
3c0200
3c0200
3c0200
3c0200
3c0200
3c0200
3c0200
3c0200
3c0200
3c0600
1e0400
1f1c00
07f800
ENDCHAR
STARTCHAR Yacute
ENCODING 221
SWIDTH 722 0
DWIDTH 18 0
BBX 18 23 0 0
BITMAP
000e00
001c00
001800
003000
000000
000000
ff8fc0
3e0300
1e0200
0f0600
0f0c00
078c00
079800
03d000
03f000
01e000
01e000
01e000
01e000
01e000
01e000
01e000
07f800
ENDCHAR
STARTCHAR Tcedilla
ENCODING 222
SWIDTH 667 0
DWIDTH 16 0
BBX 14 23 1 -6
BITMAP
fffc
e79c
c78c
8784
8784
0780
0780
0780
0780
0780
0780
0780
0780
0780
0780
0780
1fe0
0100
0300
0380
00c0
08c0
0780
ENDCHAR
STARTCHAR ssharp
ENCODING 223
SWIDTH 556 0
DWIDTH 14 0
BBX 11 17 1 0
BITMAP
1f00
3980
71c0
71c0
71c0
71c0
7380
7700
7380
71c0
70e0
70e0
70e0
70e0
70e0
70c0
f380
ENDCHAR
STARTCHAR racute
ENCODING 224
SWIDTH 444 0
DWIDTH 11 0
BBX 9 17 1 0
BITMAP
0380
0700
0600
0c00
0000
ef00
7f80
7380
7000
7000
7000
7000
7000
7000
7000
7000
f800
ENDCHAR
STARTCHAR aacute
ENCODING 225
SWIDTH 500 0
DWIDTH 12 0
BBX 10 17 1 0
BITMAP
0e00
1c00
1800
3000
0000
3e00
7700
e380
e380
4380
0f80
7380
e380
e380
e780
ffc0
7180
ENDCHAR
STARTCHAR acircumflex
ENCODING 226
SWIDTH 500 0
DWIDTH 12 0
BBX 10 17 1 0
BITMAP
0c00
1e00
3300
0000
0000
3e00
7700
e380
e380
4380
0f80
7380
e380
e380
e780
ffc0
7180
ENDCHAR
STARTCHAR abreve
ENCODING 227
SWIDTH 500 0
DWIDTH 12 0
BBX 10 16 1 0
BITMAP
2100
3300
1e00
0000
3e00
7700
e380
e380
4380
0f80
7380
e380
e380
e780
ffc0
7180
ENDCHAR
STARTCHAR adiaeresis
ENCODING 228
SWIDTH 500 0
DWIDTH 12 0
BBX 10 16 1 0
BITMAP
3300
3300
0000
0000
3e00
7700
e380
e380
4380
0f80
7380
e380
e380
e780
ffc0
7180
ENDCHAR
STARTCHAR lacute
ENCODING 229
SWIDTH 278 0
DWIDTH 7 0
BBX 6 22 1 0
BITMAP
1c
38
30
60
00
f0
70
70
70
70
70
70
70
70
70
70
70
70
70
70
70
f8
ENDCHAR
STARTCHAR cacute
ENCODING 230
SWIDTH 444 0
DWIDTH 11 0
BBX 9 17 1 0
BITMAP
0380
0700
0600
0c00
0000
1e00
7300
7380
e380
e100
e000
e000
e000
f000
7880
7f00
1e00
ENDCHAR
STARTCHAR ccedilla
ENCODING 231
SWIDTH 444 0
DWIDTH 11 0
BBX 9 18 1 -6
BITMAP
1e00
7300
7380
e380
e100
e000
e000
e000
f000
7880
7f00
1e00
0800
1800
1c00
0600
4600
3c00
ENDCHAR
STARTCHAR ccaron
ENCODING 232
SWIDTH 444 0
DWIDTH 11 0
BBX 9 16 1 0
BITMAP
3300
1e00
0c00
0000
1e00
7300
7380
e380
e100
e000
e000
e000
f000
7880
7f00
1e00
ENDCHAR
STARTCHAR eacute
ENCODING 233
SWIDTH 444 0
DWIDTH 11 0
BBX 9 17 1 0
BITMAP
0e00
1c00
1800
3000
0000
1e00
7300
7380
e380
e380
ff80
e000
e000
f000
7880
7f00
1e00
ENDCHAR
STARTCHAR eogonek
ENCODING 234
SWIDTH 444 0
DWIDTH 11 0
BBX 9 17 1 -5
BITMAP
1e00
7300
7380
e380
e380
ff80
e000
e000
f000
7880
7f00
1e00
1800
3000
3000
3200
1c00
ENDCHAR
STARTCHAR ediaeresis
ENCODING 235
SWIDTH 444 0
DWIDTH 11 0
BBX 9 16 1 0
BITMAP
3300
3300
0000
0000
1e00
7300
7380
e380
e380
ff80
e000
e000
f000
7880
7f00
1e00
ENDCHAR
STARTCHAR ecaron
ENCODING 236
SWIDTH 444 0
DWIDTH 11 0
BBX 9 16 1 0
BITMAP
3300
1e00
0c00
0000
1e00
7300
7380
e380
e380
ff80
e000
e000
f000
7880
7f00
1e00
ENDCHAR
STARTCHAR iacute
ENCODING 237
SWIDTH 278 0
DWIDTH 7 0
BBX 6 17 1 0
BITMAP
1c
38
30
60
00
f0
70
70
70
70
70
70
70
70
70
70
f8
ENDCHAR
STARTCHAR icircumflex
ENCODING 238
SWIDTH 278 0
DWIDTH 7 0
BBX 6 17 1 0
BITMAP
30
78
cc
00
00
f0
70
70
70
70
70
70
70
70
70
70
f8
ENDCHAR
STARTCHAR dcaron
ENCODING 239
SWIDTH 720 0
DWIDTH 18 0
BBX 16 20 1 0
BITMAP
0006
000f
000f
01e7
00e3
00e6
00e6
00ec
1ee8
7fe0
71e0
e0e0
e0e0
e0e0
e0e0
e0e0
f0e0
71e0
7ee0
1c70
ENDCHAR
STARTCHAR dstroke
ENCODING 240
SWIDTH 640 0
DWIDTH 16 0
BBX 14 17 1 0
BITMAP
01e0
00e0
07fc
00e0
00e0
1ee0
7fe0
71e0
e0e0
e0e0
e0e0
e0e0
e0e0
f0e0
71e0
7ee0
1c70
ENDCHAR
STARTCHAR nacute
ENCODING 241
SWIDTH 556 0
DWIDTH 14 0
BBX 12 17 1 0
BITMAP
01c0
0380
0300
0600
0000
f3c0
77e0
78e0
70e0
70e0
70e0
70e0
70e0
70e0
70e0
70e0
f9f0
ENDCHAR
STARTCHAR ncaron
ENCODING 242
SWIDTH 556 0
DWIDTH 14 0
BBX 12 16 1 0
BITMAP
1980
0f00
0600
0000
f3c0
77e0
78e0
70e0
70e0
70e0
70e0
70e0
70e0
70e0
70e0
f9f0
ENDCHAR
STARTCHAR oacute
ENCODING 243
SWIDTH 500 0
DWIDTH 13 0
BBX 11 17 1 0
BITMAP
0380
0700
0600
0c00
0000
1f00
7bc0
71c0
e0e0
e0e0
e0e0
e0e0
e0e0
e0e0
71c0
7bc0
1f00
ENDCHAR
STARTCHAR ocircumflex
ENCODING 244
SWIDTH 500 0
DWIDTH 13 0
BBX 11 17 1 0
BITMAP
0c00
1e00
3300
0000
0000
1f00
7bc0
71c0
e0e0
e0e0
e0e0
e0e0
e0e0
e0e0
71c0
7bc0
1f00
ENDCHAR
STARTCHAR odoubleacute
ENCODING 245
SWIDTH 500 0
DWIDTH 13 0
BBX 11 18 1 0
BITMAP
0cc0
0cc0
1980
1980
1100
0000
1f00
71c0
71c0
e0e0
e0e0
e0e0
e0e0
e0e0
e0e0
71c0
71c0
1f00
ENDCHAR
STARTCHAR odiaeresis
ENCODING 246
SWIDTH 500 0
DWIDTH 13 0
BBX 11 16 1 0
BITMAP
3180
3180
0000
0000
1f00
7bc0
71c0
e0e0
e0e0
e0e0
e0e0
e0e0
e0e0
71c0
7bc0
1f00
ENDCHAR
STARTCHAR division
ENCODING 247
SWIDTH 570 0
DWIDTH 14 0
BBX 12 12 1 0
BITMAP
0600
0600
0600
0000
0000
fff0
fff0
0000
0000
0600
0600
0600
ENDCHAR
STARTCHAR rcaron
ENCODING 248
SWIDTH 444 0
DWIDTH 11 0
BBX 9 16 1 0
BITMAP
3300
1e00
0c00
0000
ef00
7f80
7380
7000
7000
7000
7000
7000
7000
7000
7000
f800
ENDCHAR
STARTCHAR uring
ENCODING 249
SWIDTH 556 0
DWIDTH 14 0
BBX 12 19 1 0
BITMAP
0600
0f00
1980
1980
0f00
0600
0000
f1e0
70e0
70e0
70e0
70e0
70e0
70e0
70e0
70e0
71e0
7ef0
3ce0
ENDCHAR
STARTCHAR uacute
ENCODING 250
SWIDTH 556 0
DWIDTH 14 0
BBX 12 17 1 0
BITMAP
0700
0e00
0c00
1800
0000
f1e0
70e0
70e0
70e0
70e0
70e0
70e0
70e0
70e0
71e0
7ef0
3ce0
ENDCHAR
STARTCHAR udoubleacute
ENCODING 251
SWIDTH 556 0
DWIDTH 14 0
BBX 12 18 1 0
BITMAP
0cc0
0cc0
1980
1980
1100
0000
f1e0
70e0
70e0
70e0
70e0
70e0
70e0
70e0
70e0
71e0
7ef0
3ce0
ENDCHAR
STARTCHAR udiaeresis
ENCODING 252
SWIDTH 556 0
DWIDTH 14 0
BBX 12 16 1 0
BITMAP
1980
1980
0000
0000
f1e0
70e0
70e0
70e0
70e0
70e0
70e0
70e0
70e0
71e0
7ef0
3ce0
ENDCHAR
STARTCHAR yacute
ENCODING 253
SWIDTH 500 0
DWIDTH 12 0
BBX 12 22 0 -5
BITMAP
01c0
0380
0300
0600
0000
fdf0
7860
3840
38c0
3c80
1c80
1d80
1f00
0f00
0f00
0600
0600
0600
6400
ec00
f800
7000
ENDCHAR
STARTCHAR tcedilla
ENCODING 254
SWIDTH 333 0
DWIDTH 8 0
BBX 8 22 0 -6
BITMAP
08
18
38
78
ff
38
38
38
38
38
38
38
38
39
3e
1c
08
18
1c
06
46
3c
ENDCHAR
STARTCHAR abovedot
ENCODING 255
SWIDTH 333 0
DWIDTH 8 0
BBX 2 2 3 14
BITMAP
c0
c0
ENDCHAR
ENDFONT
